<?xml version="1.0" encoding="UTF-8" standalone="no"?>
<!-- Created with Inkscape (http://www.inkscape.org/) -->

<svg
   xmlns:dc="http://purl.org/dc/elements/1.1/"
   xmlns:cc="http://creativecommons.org/ns#"
   xmlns:rdf="http://www.w3.org/1999/02/22-rdf-syntax-ns#"
   xmlns:svg="http://www.w3.org/2000/svg"
   xmlns="http://www.w3.org/2000/svg"
   xmlns:sodipodi="http://sodipodi.sourceforge.net/DTD/sodipodi-0.dtd"
   xmlns:inkscape="http://www.inkscape.org/namespaces/inkscape"
   width="210mm"
   height="297mm"
   viewBox="0 0 744.09448819 1052.3622047"
   id="svg2"
   version="1.1"
   inkscape:version="0.91 r13725"
   sodipodi:docname="Icon_PokemonGO.svg">
  <defs
     id="defs4" />
  <sodipodi:namedview
     id="base"
     pagecolor="#ffffff"
     bordercolor="#666666"
     borderopacity="1.0"
     inkscape:pageopacity="0.0"
     inkscape:pageshadow="2"
     inkscape:zoom="1.5"
     inkscape:cx="220.65243"
     inkscape:cy="778.17031"
     inkscape:document-units="px"
     inkscape:current-layer="layer1"
     showgrid="true"
     showguides="false"
     inkscape:snap-grids="false"
     inkscape:window-width="1920"
     inkscape:window-height="1017"
     inkscape:window-x="-8"
     inkscape:window-y="-8"
     inkscape:window-maximized="1">
    <inkscape:grid
       type="xygrid"
       id="grid3338"
       spacingx="15"
       spacingy="15" />
  </sodipodi:namedview>
  <metadata
     id="metadata7">
    <rdf:RDF>
      <cc:Work
         rdf:about="">
        <dc:format>image/svg+xml</dc:format>
        <dc:type
           rdf:resource="http://purl.org/dc/dcmitype/StillImage" />
        <dc:title></dc:title>
      </cc:Work>
    </rdf:RDF>
  </metadata>
  <g
     inkscape:label="Ebene 1"
     inkscape:groupmode="layer"
     id="layer1"
     style="display:inline">
    <path
       style="fill:none;fill-rule:evenodd;stroke:#000000;stroke-width:1px;stroke-linecap:butt;stroke-linejoin:miter;stroke-opacity:1"
       d="m 525,302.36222 c -80.23151,-0.32464 -150.76305,0.4623 -225,0 l 0.2,74.9 129.8,0.4 c -26.06214,40.25186 -64.2043,73.22227 -129.9,74.89998 -111.32106,-4.28328 -151.76798,-97.46759 -150.2,-150 0.61616,-87.54483 70.13292,-151.53041 150.2,-150.2 48.3837,1.49653 93.48659,17.88972 129.6,75.1 l 82.5,0 C 490.02563,158.23027 417.10789,80.67974 300,77.162205 181.27867,78.70151 78.507893,166.26288 74.9,302.2622 c -4.800495,46.47485 34.0945,217.19446 225.2,225.3 128.93147,-5.01987 214.83194,-92.55525 224.9,-225.19998 z"
       id="path3356"
       inkscape:connector-curvature="0"
       sodipodi:nodetypes="ccccccccccccc" />
    <path
       style="opacity:1;fill:#ff6600;fill-opacity:1;stroke:#000000;stroke-width:0.28797314;stroke-linejoin:round;stroke-miterlimit:4;stroke-dasharray:none;stroke-opacity:1"
       d="M 292.35675,526.68608 C 244.71126,523.3184 202.83154,509.35061 169.39222,485.67478 128.55374,456.76015 98.392104,413.30407 83.271168,361.59386 c -2.886154,-9.87 -6.019789,-25.15799 -7.233847,-35.29158 -1.106763,-9.23802 -0.807082,-30.94589 0.608254,-44.0599 6.045989,-56.02001 28.392945,-103.66311 65.802095,-140.28827 17.89548,-17.52044 34.60665,-29.31538 57.4697,-40.56279 28.16644,-13.856394 56.29323,-21.1906 89.55714,-23.352485 28.1059,-1.826655 66.34935,5.07872 96.35367,17.397965 56.71128,23.28465 102.04378,68.9258 122.87867,123.7153 1.38022,3.62957 2.50949,6.93406 2.50949,7.34331 0,0.60112 -7.7857,0.7441 -40.51776,0.7441 l -40.51776,0 -3.34617,-5.03953 c -11.03903,-16.62544 -24.05297,-30.7778 -38.0069,-41.33166 -20.93428,-15.83336 -42.97142,-24.27231 -73.14517,-28.01038 -8.71799,-1.08003 -29.08722,-0.91917 -37.43651,0.29565 -33.02821,4.80557 -61.43751,18.92403 -84.64928,42.0678 -23.10723,23.03952 -37.63242,52.40382 -42.674,86.27022 -1.24512,8.36397 -1.71784,27.53622 -0.87868,35.63683 2.8118,27.14317 14.00164,54.76183 31.54753,77.86534 5.81843,7.6614 19.65152,21.4893 26.98789,26.97774 21.23945,15.88956 44.25469,25.22954 72.52388,29.43142 9.55648,1.42046 26.63333,1.67563 35.73106,0.5339 22.23822,-2.79079 43.27509,-9.8515 60.70715,-20.37544 15.34556,-9.2643 31.29133,-24.05647 43.62092,-40.46517 3.75928,-5.003 9.42132,-13.29307 9.42132,-13.79423 0,-0.17133 -29.22207,-0.37741 -64.93794,-0.45797 l -64.93795,-0.14645 -0.14822,-37.00455 -0.14822,-37.00455 112.09289,0 112.09288,0 -0.38184,3.88763 c -5.47903,55.78437 -22.31891,100.58507 -52.15259,138.74634 -6.21637,7.95157 -24.30642,26.12483 -32.55184,32.70156 -7.64213,6.09554 -21.85473,15.58315 -30.53603,20.38432 -27.70595,15.32269 -64.94336,25.94585 -98.18797,28.01125 -3.00932,0.18696 -6.89696,0.42874 -8.63919,0.53729 -1.74224,0.10855 -6.14823,-0.0133 -9.79109,-0.27079 z"
       id="path4202"
       inkscape:connector-curvature="0" />
    <path
       style="fill:none;fill-rule:evenodd;stroke:#000000;stroke-width:1px;stroke-linecap:butt;stroke-linejoin:miter;stroke-opacity:1"
       d="m 429.8,227.4622 c 13.73095,23.86503 19.23606,48.54081 20,74.8"
       id="path4204"
       inkscape:connector-curvature="0"
       sodipodi:nodetypes="cc" />
    <path
       style="fill:none;fill-rule:evenodd;stroke:#000000;stroke-width:1px;stroke-linecap:butt;stroke-linejoin:miter;stroke-opacity:1"
       d="m 152.8,272.1622 78.6,0.1 c 12.8841,-26.39283 33.98043,-43.47179 68.7,-45.1 34.72212,1.97789 56.36317,18.43839 68.7,45.2 l 77.4,0"
       id="path4206"
       inkscape:connector-curvature="0"
       sodipodi:nodetypes="ccccc" />
    <path
       style="fill:none;fill-rule:evenodd;stroke:#000000;stroke-width:1px;stroke-linecap:butt;stroke-linejoin:miter;stroke-opacity:1"
       d="m 152.7,332.3622 78.5,0 c 13.91363,29.26797 37.15337,43.99817 69.2,45"
       id="path4208"
       inkscape:connector-curvature="0"
       sodipodi:nodetypes="ccc" />
    <path
       style="fill:#000000;fill-rule:evenodd;stroke:#000000;stroke-width:1px;stroke-linecap:butt;stroke-linejoin:miter;stroke-opacity:1"
       d="m 314.8,301.9622 30.1,0.2 c -2.61044,-27.62032 -17.15814,-43.17774 -45.1,-45.2 -32.5482,2.78707 -43.04349,24.28113 -45,45.2 2.62965,25.30718 14.81092,42.33726 45.3,44.9 l -0.1,-30 c -8.13586,-0.42426 -13.62232,-4.62163 -15.1,-14.9 1.55643,-9.95895 7.05402,-14.19291 15,-15.1 8.72994,0.36711 13.36694,5.73671 14.9,14.9 z"
       id="path4210"
       inkscape:connector-curvature="0"
       sodipodi:nodetypes="ccccccccc" />
    <path
       style="opacity:1;fill:#ff0000;fill-opacity:1;stroke:#000000;stroke-width:0.33333334;stroke-linejoin:round;stroke-miterlimit:4;stroke-dasharray:none;stroke-opacity:1"
       d="m 368.95052,271.36992 c -0.34893,-0.45834 -1.47396,-2.48334 -2.50009,-4.5 -4.66825,-9.17467 -13.3483,-19.50516 -21.22845,-25.26487 -13.13377,-9.59967 -32.91614,-15.47684 -48.80032,-14.49815 -10.26062,0.6322 -22.35111,3.73362 -30.49476,7.82246 -12.95661,6.50536 -25.92292,19.6108 -32.75575,33.10722 l -1.77195,3.5 -38.9039,0 -38.90389,0 1.27874,-5.5 c 6.80525,-29.26994 24.22036,-57.73235 47.54105,-77.69876 9.81092,-8.39979 19.26346,-14.58106 31.3438,-20.49655 30.51134,-14.94078 62.44052,-18.5842 98.81286,-11.2755 16.4138,3.29821 34.55246,10.67116 47.8538,19.45149 25.73838,16.99011 48.78362,45.64816 59.26464,73.69892 2.6544,7.10408 6.47417,21.16434 5.97094,21.97858 -0.17284,0.27967 -17.35983,0.50849 -38.19329,0.50849 -29.52043,0 -38.01902,-0.18389 -38.51343,-0.83333 z"
       id="path4212"
       inkscape:connector-curvature="0" />
    <path
       style="opacity:1;fill:#00ccff;fill-opacity:1;stroke:#000000;stroke-width:0.0625;stroke-linejoin:round;stroke-miterlimit:4;stroke-dasharray:none;stroke-opacity:1"
       d="m 187.17412,400.23228 c -16.1025,-18.78806 -27.97616,-42.5497 -33.4881,-67.01659 l -0.0634,-0.28125 38.59828,0 38.59828,0 0.85586,1.71729 c 9.71279,19.48874 24.27753,32.67868 42.95606,38.90136 1.06358,0.35433 2.00936,0.66971 2.10173,0.70086 0.10682,0.036 -0.24579,0.49378 -0.96875,1.25769 -0.62518,0.66059 -1.13621,1.26503 -1.13561,1.34319 6.3e-4,0.0782 0.0845,0.84523 0.18642,1.70461 0.10193,0.85937 0.18581,1.72155 0.18641,1.91594 l 10e-4,0.35344 -0.65385,-0.57197 -0.65386,-0.57198 -1.02322,1.0179 -1.02321,1.0179 -1.25998,-0.31594 -1.25997,-0.31594 -1.95966,0.23882 c -1.112,0.13552 -1.99083,0.19075 -2.03171,0.1277 -0.95721,-1.47642 -1.68824,-2.52087 -1.76444,-2.52087 -0.0533,0 -0.48152,-0.1726 -0.95169,-0.38356 l -0.85487,-0.38355 1.34942,-1.2727 1.34942,-1.27269 -1.34996,-1.90055 c -0.95874,-1.34977 -1.4224,-1.90192 -1.59995,-1.90527 -0.1375,-0.003 -1.14355,0.16149 -2.23567,0.36464 -1.36886,0.25464 -2.05466,0.33244 -2.2078,0.25048 -0.12218,-0.0654 -1.52845,-0.96329 -3.12505,-1.99534 -1.59659,-1.03206 -2.9486,-1.87646 -3.00447,-1.87646 -0.0559,0 -0.92045,0.37494 -1.92131,0.83319 l -1.81974,0.8332 -1.71798,-0.64715 -1.71798,-0.64714 -2.43709,-0.0819 -2.43709,-0.0819 -2.47022,-1.85734 c -1.35862,-1.02154 -2.6072,-1.91976 -2.77462,-1.99604 -0.24512,-0.11169 -0.64742,-0.0592 -2.066,0.26944 -0.96888,0.22447 -1.78082,0.38675 -1.80432,0.3606 -0.0235,-0.0261 -0.67689,-1.17252 -1.45197,-2.54752 -0.77508,-1.375 -1.42101,-2.51565 -1.43539,-2.53476 -0.0518,-0.0688 -9.62211,-0.78097 -9.76388,-0.72656 -0.0799,0.0306 -0.41839,0.5388 -0.75231,1.12924 -0.52928,0.9359 -0.66449,1.08919 -1.05466,1.19566 -1.31246,0.35816 -19.28959,4.74892 -19.44354,4.74892 -0.10005,0 -1.14622,-0.36563 -2.32483,-0.8125 -1.17861,-0.44688 -2.19542,-0.8125 -2.25958,-0.8125 -0.0642,0 -1.45085,0.64337 -3.08153,1.42971 l -2.96489,1.42972 -2.05154,-0.60375 c -1.12835,-0.33206 -2.89162,-0.92005 -3.91837,-1.30664 -1.02676,-0.38659 -1.90505,-0.65984 -1.95177,-0.60722 -0.0467,0.0526 -0.27088,0.7878 -0.49813,1.63372 l -0.41319,1.53804 -2.59996,1.87394 c -1.42998,1.03067 -2.62894,1.92084 -2.66436,1.97816 -0.0354,0.0573 0.82066,0.14177 1.90241,0.18768 1.08175,0.0459 2.19693,0.11397 2.47816,0.15126 l 0.51133,0.0678 0.60071,1.40496 0.60071,1.40496 1.32546,0.81511 c 0.729,0.4483 1.76128,1.08475 2.29396,1.41431 l 0.96849,0.59921 1.05324,-0.40719 1.05324,-0.40719 1.48106,0.57615 c 1.57923,0.61434 1.57129,0.60818 3.57342,2.77277 l 0.46988,0.508 0.38777,2.8045 c 0.21327,1.54247 0.40701,2.826 0.43053,2.85228 0.0235,0.0263 0.5505,-0.24091 1.17108,-0.59375 0.62057,-0.35284 1.16983,-0.64153 1.22058,-0.64153 0.0507,0 0.58038,0.48585 1.17696,1.07967 l 1.0847,1.07968 1.53435,-1.05441 c 0.84389,-0.57992 1.55025,-1.10796 1.56969,-1.17342 0.0194,-0.0655 -0.44453,-0.48465 -1.03103,-0.93152 -0.5865,-0.44688 -1.1228,-0.87918 -1.19176,-0.96067 -0.15544,-0.18366 3.11611,-6.15866 3.37398,-6.16208 0.13749,-0.002 4.12371,1.23174 4.23831,1.31158 0.0181,0.0126 -0.10016,0.85174 -0.26289,1.86465 l -0.29589,1.84166 0.26289,0.0978 c 0.14459,0.0538 1.09249,0.37122 2.10644,0.70538 l 1.84355,0.60756 1.03628,-0.51394 1.03628,-0.51394 0.99517,0.10424 c 0.54735,0.0573 1.09361,0.10728 1.21393,0.11099 0.19804,0.006 0.21875,0.17958 0.21875,1.83261 0,1.67705 0.0176,1.81913 0.21549,1.74318 0.11851,-0.0455 0.99228,-0.53298 1.9417,-1.08333 l 1.72622,-1.00064 1.00747,0.70595 1.00747,0.70595 1.01957,-0.67692 c 0.56077,-0.3723 1.14614,-0.70949 1.30083,-0.74929 l 0.28125,-0.0724 0,1.91698 0,1.91697 -0.8125,-0.23235 c -0.44688,-0.1278 -0.8125,-0.19404 -0.8125,-0.14721 0,0.0468 0.25208,0.78817 0.56019,1.64742 0.3081,0.85926 0.56123,1.59586 0.5625,1.6369 0.001,0.041 -0.57968,0.47438 -1.291,0.96299 l -1.29331,0.88838 -2.01425,-1.43174 c -1.10783,-0.78746 -2.05866,-1.43341 -2.11294,-1.43545 -0.0543,-0.002 -0.43619,0.36536 -0.84869,0.81643 l -0.75,0.82014 -0.78125,-0.26541 c -0.42969,-0.14597 -0.78125,-0.30572 -0.78125,-0.355 0,-0.0493 0.16737,-0.54823 0.37195,-1.10877 l 0.37195,-1.01917 -1.0282,-1.4998 -1.0282,-1.49981 -1.59825,-0.005 -1.59825,-0.005 -1.98587,1.36762 c -1.09222,0.75219 -2.78348,1.9863 -3.75834,2.74246 l -1.77248,1.37483 -0.83091,-0.54862 -0.8309,-0.54861 -2.25,0.54323 c -1.27179,0.30705 -3.47277,0.71276 -5.0625,0.93316 -3.71068,0.51446 -3.375,0.40946 -3.375,1.05567 l 0,0.53998 2.5,0.85588 c 1.375,0.47074 2.5,0.90733 2.5,0.9702 0,0.7653 -1.06944,5.41049 -1.36973,5.94954 -0.0689,0.12363 -0.51981,-0.32131 -1.58358,-1.5625 z"
       id="path4257"
       inkscape:connector-curvature="0" />
    <path
       style="opacity:1;fill:#00ccff;fill-opacity:1;stroke:#000000;stroke-width:0.05;stroke-linejoin:round;stroke-miterlimit:4;stroke-dasharray:none;stroke-opacity:1"
       d="m 297.59466,451.95808 c -4.20974,-0.23747 -9.27248,-0.66682 -12.75,-1.08128 -23.24091,-2.76987 -44.02636,-9.67483 -62.59428,-20.7939 l -2.20572,-1.32085 -0.0256,-7.91797 c -0.0141,-4.35489 0.001,-7.91798 0.0346,-7.91798 0.0331,0 0.1855,0.0892 0.33869,0.19833 l 0.27853,0.19833 0.11003,-0.7398 c 0.0605,-0.40689 0.13972,-0.99241 0.17601,-1.30114 0.0363,-0.30874 0.0944,-0.5789 0.12913,-0.60037 0.0347,-0.0215 0.74995,-0.20037 1.58936,-0.39757 l 1.52621,-0.35853 1.6486,-0.99962 1.6486,-0.99963 2.42294,-0.0117 c 1.33261,-0.006 2.87212,-0.0402 3.42114,-0.075 l 0.9982,-0.0633 0.38177,-0.7 c 0.20997,-0.385 0.53318,-0.97579 0.71824,-1.31288 l 0.33648,-0.61288 -0.83305,-1.28333 -0.83305,-1.28334 0.3166,-0.39659 c 2.16923,-2.71734 2.85051,-3.61707 2.78696,-3.68062 -0.0416,-0.0416 -1.08693,-0.78701 -2.32298,-1.65649 l -2.24738,-1.58089 -0.45,-1.54746 c -0.2475,-0.85111 -0.48145,-1.59527 -0.5199,-1.65369 -0.0384,-0.0584 -1.00155,-0.55029 -2.14023,-1.09302 l -2.07033,-0.9868 -1.80977,0.024 -1.80977,0.024 -1.8964,-0.55504 c -1.04302,-0.30526 -1.90927,-0.55503 -1.925,-0.55503 -0.0157,0 -0.0286,-0.89567 -0.0286,-1.99037 l 0,-1.99038 1.025,-0.0581 c 0.56375,-0.032 1.32929,-0.0722 1.70118,-0.0894 l 0.67618,-0.0313 1.52382,1.74038 1.52382,1.74038 2.75,-0.0502 2.75,-0.0502 2.04349,-0.4604 c 1.12392,-0.25323 2.11661,-0.46041 2.20597,-0.46041 0.0894,0 1.9373,0.82492 4.10651,1.83316 2.75342,1.27976 4.71382,2.26944 6.49403,3.27841 1.93083,1.09434 3.03863,1.64687 4.56233,2.27552 l 2.01232,0.83025 -0.52337,1.36168 -0.52338,1.36167 -3.93895,1.31286 -3.93895,1.31286 -0.0278,1.36087 -0.0278,1.36087 -1.29722,0.40897 c -0.71347,0.22494 -1.29722,0.42127 -1.29722,0.43628 0,0.015 0.15698,0.49342 0.34883,1.06312 0.21793,0.64713 0.31477,1.07666 0.25807,1.14465 -0.0499,0.0599 -0.65435,0.55883 -1.34318,1.10883 -0.68884,0.55 -1.25497,1.03775 -1.25807,1.08389 -0.003,0.0461 0.60185,1.01763 1.34435,2.15886 l 1.35,2.07498 0,1.521 0,1.521 1.64609,1.90973 1.64608,1.90972 1.75897,0.98819 c 0.99991,0.56175 1.81073,0.95749 1.87892,0.91703 0.066,-0.0391 1.92388,-1.31711 4.1287,-2.83995 l 4.00875,-2.7688 2.03089,-0.1608 c 1.117,-0.0885 2.04911,-0.17902 2.07137,-0.20128 0.0223,-0.0223 0.21164,-0.67664 0.42085,-1.45418 0.20921,-0.77754 0.39815,-1.43029 0.41988,-1.45054 0.068,-0.0634 3.64238,-0.25194 5.8895,-0.31063 1.1825,-0.0309 2.33159,-0.0782 2.55354,-0.10509 l 0.40353,-0.0489 1.33044,1.50291 c 0.73174,0.82659 1.34402,1.5029 1.36061,1.5029 0.0737,0 2.75188,-3.91437 2.75188,-4.02215 0,-0.0663 -0.21244,-0.76303 -0.4721,-1.54826 l -0.4721,-1.42768 -1.43016,-1.61917 c -0.78658,-0.89055 -1.41789,-1.65317 -1.4029,-1.69471 0.015,-0.0415 0.34226,-0.46318 0.72726,-0.93698 0.44499,-0.54763 1.65878,-1.71615 3.33181,-3.20758 l 2.63181,-2.34612 0.41819,0.30537 c 0.67309,0.49149 1.0137,0.7853 0.96429,0.83181 -0.0254,0.0238 -0.6536,0.43779 -1.3961,0.91986 -0.7425,0.48207 -1.36434,0.88764 -1.38187,0.90127 -0.0175,0.0136 0.0837,1.39101 0.225,3.06087 0.14128,1.66986 0.25687,3.13942 0.25687,3.26569 0,0.12627 0.0384,0.20583 0.0854,0.17679 0.047,-0.029 0.53073,-0.79846 1.075,-1.70983 l 0.98957,-1.65704 0.0692,0.37893 c 0.0381,0.20841 0.0725,0.53643 0.0765,0.72893 0.0131,0.62781 0.0463,0.63771 1.31413,0.39187 l 1.1401,-0.22107 1.11808,0.63212 1.11808,0.63211 -0.54093,0.61613 -0.54092,0.61612 -3.15347,0.18504 c -1.73441,0.10178 -3.11913,0.21604 -3.07715,0.25392 0.042,0.0379 1.10417,0.61448 2.36044,1.28132 l 2.28412,1.21244 0.91588,-0.003 c 0.8969,-0.003 1.33132,-0.0463 3.08116,-0.30571 l 0.86528,-0.12827 4.03472,1.78119 c 2.21909,0.97966 4.08472,1.82087 4.14583,1.86936 0.0611,0.0485 0.53362,1.01327 1.05,2.14396 l 0.93888,2.0558 1.55,-1.60199 1.55,-1.60198 1.97683,-0.80699 c 1.1613,-0.47407 3.01776,-1.35572 4.5,-2.13709 l 2.52317,-1.33011 1,0.0725 c 0.55,0.0399 1.16659,0.077 1.3702,0.0825 0.36412,0.01 0.38003,0.0276 0.97054,1.08448 0.3302,0.59095 0.56861,1.1054 0.52981,1.14322 -0.0388,0.0378 -0.81305,0.41128 -1.72055,0.82989 -0.9075,0.41861 -1.6985,0.81541 -1.75778,0.88178 -0.0593,0.0664 -0.48314,1.01718 -0.94191,2.11293 -0.82284,1.96531 -0.8319,1.99616 -0.66966,2.27884 0.31258,0.54466 2.07634,2.97889 2.15839,2.97889 0.26086,0 4.2048,-2.0397 5.54854,-2.86956 l 1.58758,-0.98044 0.89484,-2.4 0.89484,-2.4 0.87634,-0.6164 0.87634,-0.61639 1.49416,-0.20861 c 0.82179,-0.11473 1.61952,-0.20861 1.77273,-0.20861 0.33909,0 2.15683,0.96189 2.24506,1.18802 0.0348,0.0891 0.26845,1.03063 0.5193,2.0923 0.25085,1.06168 0.5,1.92752 0.55366,1.9241 0.0537,-0.003 0.68724,-0.3481 1.40796,-0.76595 l 1.31038,-0.75972 -0.12615,-0.60454 c -0.12096,-0.57965 -0.11388,-0.63789 0.17195,-1.41438 l 0.2981,-0.80983 0.90467,-0.55 c 0.8797,-0.53482 0.9108,-0.56655 1.12691,-1.15 l 0.22225,-0.6 0.84075,-0.27625 c 0.46241,-0.15195 1.49561,-0.48327 2.296,-0.73628 l 1.45525,-0.46002 0.7595,0.48628 0.75951,0.48627 -0.29715,0.75 c -0.16344,0.4125 -0.34069,0.795 -0.39389,0.85 -0.0532,0.055 -1.54567,0.91459 -3.3166,1.91019 l -3.21988,1.81019 -2.07341,3.33981 c -1.14038,1.8369 -2.06011,3.38481 -2.04385,3.43981 0.0344,0.11617 2.26399,1.75 2.38817,1.75 0.0458,0 0.80053,-0.54 1.6771,-1.2 l 1.59377,-1.2 3.82812,-0.002 3.82811,-0.002 0.48799,-1.04355 c 0.36705,-0.78494 0.86923,-1.55886 2.02632,-3.12283 l 1.53834,-2.07928 2.26692,-1.075 c 1.24681,-0.59125 2.33032,-1.075 2.4078,-1.075 0.0775,0 0.74567,0.54 1.48486,1.2 0.73919,0.66 1.37634,1.1978 1.41588,1.1951 0.0395,-0.003 0.38126,-0.41166 0.75939,-0.9088 l 0.68749,-0.9039 -0.5109,-3.1662 -0.5109,-3.1662 0.28898,-2.61177 0.28897,-2.61178 1.58443,-1.99363 c 0.94931,-1.19448 2.38541,-3.19863 3.58263,-4.99975 l 1.99821,-3.00612 1.15179,-0.50481 c 0.75396,-0.33044 1.94624,-0.71825 3.4518,-1.12275 1.265,-0.33986 2.33968,-0.65569 2.38818,-0.70184 0.0485,-0.0462 1.2726,-2.82073 2.72022,-6.16573 l 2.63204,-6.08182 27.47947,0.033 c 15.11371,0.0182 27.49633,0.0499 27.51693,0.0705 0.0663,0.0663 -0.43061,0.84129 -2.23271,3.48236 -9.84723,14.43167 -19.88154,25.88279 -31.22681,35.63594 -21.98069,18.89607 -47.89036,29.98666 -78.42732,33.57069 -7.16391,0.84081 -15.57633,1.31082 -19.5,1.08948 z m 12.8012,-6.83729 c 0.67553,-0.71796 1.18782,-1.34111 1.13849,-1.38486 -0.0493,-0.0437 -0.59601,-0.49477 -1.21485,-1.00227 l -1.12517,-0.92273 -1.27483,1.07596 c -0.70116,0.59178 -1.29601,1.09262 -1.32189,1.11298 -0.051,0.0402 2.40738,2.41296 2.50857,2.42122 0.0338,0.003 0.61419,-0.58238 1.28968,-1.3003 z m 7.19954,-3.284 1.28649,-1.08932 -1.35565,-1.07316 -1.35565,-1.07315 -1.25855,1.25855 c -0.6922,0.6922 -1.23804,1.2764 -1.21296,1.29822 0.27265,0.23727 2.45638,1.76817 2.52217,1.76817 0.0482,0 0.66658,-0.49019 1.37415,-1.08931 z m 0.74534,-5.36794 c 0.04,-0.96649 0.0517,-1.77828 0.026,-1.80397 -0.0606,-0.0606 -3.17398,-0.47182 -3.21459,-0.42462 -0.017,0.0197 -0.0614,0.64714 -0.0988,1.39427 l -0.0679,1.35843 1.52962,0.60694 c 0.84129,0.33381 1.57986,0.61127 1.64128,0.61657 0.0759,0.007 0.135,-0.55396 0.18441,-1.74762 z m -5.07224,-3.20531 c 0.79257,-0.47441 1.40394,-0.89622 1.3586,-0.93736 -0.14787,-0.13415 -3.44063,-2.3095 -3.57233,-2.36004 -0.0798,-0.0306 -0.47476,0.485 -1.04794,1.36824 -0.5059,0.77957 -0.90685,1.42901 -0.89099,1.44319 0.0449,0.0402 2.62363,1.33745 2.67022,1.34332 0.0228,0.003 0.68987,-0.38294 1.48244,-0.85735 z m 3.10704,-2.52582 1.11372,-1.18839 -1.45685,-0.87206 c -0.80127,-0.47963 -1.4946,-0.83361 -1.54074,-0.78661 -0.12089,0.12313 -1.39748,2.42137 -1.39455,2.5106 10e-4,0.0412 0.4851,0.39811 1.075,0.79322 0.5899,0.39511 1.0764,0.72136 1.08112,0.725 0.005,0.004 0.50975,-0.52815 1.1223,-1.18176 z m 2.57539,-2.76721 c 0.53124,-0.69057 0.94242,-1.27905 0.91375,-1.30772 -0.0287,-0.0287 -0.53664,-0.16164 -1.12882,-0.29549 -0.59217,-0.13384 -1.09203,-0.2587 -1.11079,-0.27746 -0.0188,-0.0187 0.10173,-0.3533 0.26775,-0.74344 0.16601,-0.39013 0.3017,-0.74555 0.30151,-0.78982 -2e-4,-0.0443 -0.43566,-0.27771 -0.96772,-0.51878 -0.69246,-0.31374 -1.01016,-0.41134 -1.11785,-0.34341 -0.0828,0.0522 -0.41695,0.41624 -0.74268,0.809 l -0.59224,0.71409 0.23839,1.37931 0.23839,1.37931 1.24702,0.61722 c 0.68587,0.33947 1.30111,0.62072 1.36722,0.625 0.0661,0.004 0.55484,-0.55723 1.08607,-1.24781 z m 3.19457,-4.47904 c 0.36843,-0.81655 0.63147,-1.52178 0.58452,-1.56718 -0.081,-0.0783 -2.41308,-1.39819 -2.47046,-1.39819 -0.015,0 -0.38172,0.51899 -0.81499,1.1533 -0.77659,1.13695 -0.78501,1.15595 -0.59383,1.34044 0.63454,0.61237 2.49727,2.09218 2.55549,2.03017 0.0382,-0.0406 0.37083,-0.74199 0.73927,-1.55854 z M 242.76818,399.5011 c 0.64674,-1.32252 0.95022,-1.76239 1.96536,-2.84863 0.0635,-0.068 0.69398,-0.21244 1.40096,-0.32096 0.70697,-0.10853 1.30522,-0.21713 1.32942,-0.24133 0.0242,-0.0242 -0.41482,-0.56944 -0.97563,-1.21162 -0.82526,-0.94502 -1.06005,-1.15801 -1.23163,-1.11726 -0.1166,0.0277 -0.72059,0.13019 -1.34221,0.22779 -1.10478,0.17345 -1.17678,0.20131 -3.2,1.2381 l -2.06979,1.06066 -0.76465,1.39413 c -0.42057,0.76677 -0.74463,1.41506 -0.72014,1.44065 0.0658,0.0687 4.66541,1.79297 4.79812,1.79863 0.0623,0.003 0.42691,-0.63641 0.81019,-1.42016 z"
       id="path4211"
       inkscape:connector-curvature="0" />
    <path
       style="opacity:1;fill:#00ccff;fill-opacity:1;stroke:#000000;stroke-width:0.0625;stroke-linejoin:round;stroke-miterlimit:4;stroke-dasharray:none;stroke-opacity:1"
       d="m 218.10619,427.39649 c -4.93023,-3.18376 -10.39011,-7.26589 -14.97876,-11.19902 -2.70534,-2.31886 -5.76553,-5.15715 -5.72493,-5.30981 0.0206,-0.0774 0.31369,-0.6531 0.65134,-1.27933 l 0.61391,-1.1386 1.07359,-0.13313 c 1.27075,-0.15758 5.88502,-1.47191 6.09354,-1.73569 0.0797,-0.10085 0.18248,-0.50667 0.22834,-0.90181 0.0459,-0.39515 0.12126,-0.77658 0.16755,-0.84764 0.0463,-0.071 0.53416,-0.29937 1.08416,-0.50737 0.7452,-0.28183 1.40317,-0.41812 2.58235,-0.53491 l 1.58236,-0.15673 2.35514,1.22058 c 1.29533,0.67132 2.37365,1.23608 2.39627,1.25504 0.0226,0.019 0.17489,1.06071 0.33837,2.31503 0.16348,1.25431 0.35309,2.33642 0.42136,2.40469 0.0683,0.0683 0.74537,0.55163 1.50466,1.07414 l 1.38053,0.95001 0.0547,7.84375 c 0.0301,4.31406 0.0371,7.84375 0.0156,7.84375 -0.0215,0 -0.84953,-0.52333 -1.84003,-1.16295 z"
       id="path4255"
       inkscape:connector-curvature="0" />
    <path
       style="opacity:1;fill:#55d400;fill-opacity:1;stroke:#000000;stroke-width:0.05;stroke-linejoin:round;stroke-miterlimit:4;stroke-dasharray:none;stroke-opacity:1"
       d="m 310.73875,420.66158 c -0.37345,-0.53049 -0.69789,-1.03678 -0.72099,-1.12509 -0.0231,-0.0883 0.27065,-0.89614 0.65275,-1.79518 l 0.69474,-1.63462 2.09269,-0.96758 2.0927,-0.96759 -0.9686,-1.74771 -0.96859,-1.74771 -0.44185,-0.0636 c -0.24301,-0.035 -1.05554,-0.0965 -1.80561,-0.13663 l -1.36376,-0.073 -2.78308,1.45196 c -1.53069,0.79858 -3.62842,1.79954 -4.66162,2.22435 l -1.87854,0.77239 -1.123,1.14507 -1.123,1.14507 -0.73393,-1.60078 -0.73392,-1.60078 -1.31453,-0.59272 c -0.723,-0.32599 -2.72456,-1.21493 -4.44791,-1.97542 l -3.13337,-1.3827 -1.41663,0.2149 c -0.77915,0.1182 -1.82163,0.23533 -2.31663,0.2603 -0.89948,0.0454 -0.90045,0.0451 -1.68661,-0.3715 l -0.78661,-0.41689 0.48661,-0.07 c 0.26764,-0.0385 1.00411,-0.10004 1.63661,-0.1368 l 1.15,-0.0668 1.08355,-1.14966 c 0.62574,-0.66393 1.04628,-1.18693 0.99534,-1.23787 -0.23776,-0.23775 -3.46104,-1.98843 -3.65541,-1.98537 -0.12291,0.002 -0.51555,0.0661 -0.87252,0.14262 -0.35698,0.0765 -0.65828,0.12987 -0.66957,0.11859 -0.0113,-0.0113 -0.0972,-0.73921 -0.19093,-1.61762 -0.0937,-0.87841 -0.20381,-1.63499 -0.24463,-1.6813 -0.0408,-0.0463 -0.4951,0.61744 -1.00951,1.475 -0.51441,0.85756 -0.96145,1.55919 -0.99342,1.55919 -0.0901,0 -0.30789,-2.94432 -0.22036,-2.97944 0.24225,-0.0972 3.27547,-2.18732 3.29508,-2.27056 0.0234,-0.0995 -2.70754,-2.27279 -2.92793,-2.33001 -0.0636,-0.0165 -1.3873,1.10585 -2.94161,2.49411 -2.55291,2.28019 -3.43949,3.17789 -4.68041,4.7391 l -0.39996,0.50319 1.63752,1.84681 1.63753,1.8468 0.40412,1.19854 0.40412,1.19854 -0.62148,0.90146 c -0.34181,0.49581 -0.73578,1.06851 -0.8755,1.27267 -0.13971,0.20416 -0.29902,0.36998 -0.35402,0.36848 -0.055,-10e-4 -0.55,-0.52186 -1.1,-1.15636 l -1,-1.15363 -2.1,0.062 c -2.89533,0.0855 -6.78749,0.2651 -7.44969,0.34376 l -0.5497,0.0653 -0.39361,1.44962 c -0.21648,0.79729 -0.39878,1.45927 -0.40509,1.47107 -0.006,0.0118 -0.83033,0.0877 -1.83115,0.16876 -1.00082,0.081 -1.87616,0.18029 -1.94521,0.22061 -0.0691,0.0403 -1.83997,1.25585 -3.93536,2.70118 -2.0954,1.44532 -3.85452,2.64139 -3.90916,2.65793 -0.0547,0.0165 -0.73852,-0.32804 -1.51972,-0.76573 l -1.42037,-0.79579 -1.44547,-1.68741 -1.44547,-1.68741 0,-1.47761 0,-1.47761 -1.1651,-1.78919 c -0.6408,-0.98405 -1.18054,-1.85669 -1.1994,-1.93919 -0.0213,-0.0933 0.43766,-0.5279 1.21461,-1.15 0.68691,-0.55 1.24914,-1.04836 1.24941,-1.10748 4e-4,-0.096 -0.37986,-1.252 -0.54158,-1.64634 -0.0503,-0.1227 0.18024,-0.23304 1.13948,-0.54534 l 1.20258,-0.39151 5e-5,-1.35466 5e-5,-1.35467 3.83707,-1.28099 3.83708,-1.28099 0.7552,-1.96901 c 0.41536,-1.08295 0.72414,-2.00127 0.68618,-2.0407 -0.038,-0.0394 -1.1135,-0.49749 -2.39009,-1.01789 -1.74985,-0.71334 -2.79917,-1.21814 -4.26371,-2.05116 -1.06846,-0.60772 -2.40821,-1.35087 -2.97724,-1.65143 -1.45167,-0.76678 -8.3744,-3.95783 -8.58621,-3.95783 -0.0961,0 -1.15885,0.22065 -2.36159,0.49032 l -2.18679,0.49031 -2.41898,0.0476 -2.41897,0.0476 -1.48103,-1.68972 c -0.81456,-0.92935 -1.58275,-1.71642 -1.70707,-1.74905 -0.12433,-0.0326 -1.22003,-0.0131 -2.4349,0.0433 l -2.20884,0.10268 -0.83913,0.55843 c -0.46151,0.30713 -0.88305,0.55842 -0.93675,0.55842 -0.0537,0 -0.50971,-0.29057 -1.01337,-0.64571 l -0.91574,-0.64571 -0.41261,0.21019 c -0.22694,0.1156 -0.72761,0.40019 -1.11261,0.63241 -0.385,0.23222 -0.84039,0.49383 -1.01198,0.58136 l -0.31198,0.15913 -0.063,-0.45979 c -0.0347,-0.25288 -0.063,-0.88101 -0.063,-1.39583 0,-0.78146 -0.0258,-0.93605 -0.15603,-0.93605 -0.0858,0 -0.90348,-0.0732 -1.81701,-0.16264 l -1.66098,-0.16264 -0.9875,0.48587 -0.98749,0.48587 -1.2705,-0.43239 c -0.69877,-0.23781 -1.36455,-0.46915 -1.4795,-0.51409 l -0.20901,-0.0817 0.27874,-1.73414 c 0.33638,-2.09275 0.32824,-1.94937 0.11428,-2.0122 -0.0962,-0.0283 -1.3675,-0.43826 -2.825,-0.91109 -1.4575,-0.47283 -2.72668,-0.85995 -2.82041,-0.86027 -0.20361,-7e-4 -0.67269,0.77031 -2.85918,4.69941 l -1.58597,2.85 1.02909,0.8 c 0.566,0.44001 1.02968,0.82251 1.0304,0.85001 7e-4,0.0275 -0.29082,0.24911 -0.64787,0.49246 l -0.64919,0.44245 -1.03394,-1.01745 c -0.56867,-0.5596 -1.11273,-1.01746 -1.20902,-1.01746 -0.0963,0 -0.52848,0.19874 -0.96041,0.44164 -0.66529,0.37413 -0.79263,0.41617 -0.83304,0.275 -0.0262,-0.0916 -0.17066,-1.08344 -0.32094,-2.20399 l -0.27324,-2.03735 -0.37347,-0.46265 c -0.20541,-0.25445 -0.85257,-0.97792 -1.43814,-1.60769 l -1.06467,-1.14505 -1.8168,-0.69733 -1.8168,-0.69732 -0.5532,0.20717 c -0.30426,0.11395 -0.75674,0.28519 -1.00552,0.38054 l -0.45231,0.17336 -1.94793,-1.20705 -1.94792,-1.20705 -0.52497,-1.23111 c -0.75055,-1.76012 -0.80636,-1.83773 -1.37789,-1.91607 -0.26102,-0.0358 -0.8283,-0.065 -1.26062,-0.065 -0.43232,0 -0.78604,-0.0381 -0.78604,-0.0847 0,-0.0466 0.69843,-0.59126 1.55207,-1.21044 0.85364,-0.61917 1.59085,-1.19982 1.63825,-1.29033 0.0474,-0.0905 0.22471,-0.65404 0.39401,-1.2523 0.16931,-0.59826 0.33076,-1.11068 0.35878,-1.1387 0.028,-0.028 0.69354,0.17996 1.47892,0.4622 0.78538,0.28223 2.41112,0.8109 3.61275,1.17481 l 2.18479,0.66166 1.46521,-0.70024 c 0.80587,-0.38514 2.16274,-1.0353 3.01528,-1.44482 l 1.55005,-0.74458 2.09995,0.78779 c 1.15496,0.43328 2.21244,0.7912 2.34994,0.79538 0.30728,0.009 1.26716,-0.21848 10.95,-2.59876 4.235,-1.04107 8.13923,-1.99726 8.67608,-2.12487 l 0.97608,-0.23201 0.61032,-1.0312 c 0.33567,-0.56716 0.63893,-1.04857 0.67391,-1.06979 0.14327,-0.0869 8.54023,0.62214 8.60479,0.72661 0.0372,0.0602 0.71552,1.25797 1.50744,2.66181 1.02129,1.81048 1.49053,2.55245 1.61424,2.55245 0.0959,0 0.75101,-0.13757 1.45577,-0.30571 0.70475,-0.16814 1.5372,-0.36597 1.84989,-0.43962 l 0.56853,-0.13391 2.61879,1.9761 2.61879,1.97611 2.52775,0.0723 2.52776,0.0722 1.77803,0.69127 c 0.97792,0.38019 1.81742,0.69126 1.86556,0.69126 0.0481,0 0.87984,-0.36199 1.84823,-0.80443 0.96839,-0.44244 1.81086,-0.78518 1.87217,-0.76166 0.0613,0.0235 1.2577,0.78226 2.65866,1.68607 1.40097,0.90381 2.75895,1.76716 3.01775,1.91855 l 0.47055,0.27526 1.92945,-0.35698 c 1.0612,-0.19634 1.99846,-0.35694 2.08281,-0.35689 0.0843,4e-5 0.40195,0.34883 0.70581,0.77508 0.30386,0.42625 0.71928,1.00632 0.92315,1.28904 l 0.37069,0.51404 -1.59875,1.48352 c -1.35306,1.25555 -1.57228,1.49855 -1.4265,1.58123 0.0947,0.0537 0.77975,0.3526 1.52225,0.66416 l 1.35,0.56647 0.88094,1.28827 c 0.48451,0.70855 0.91807,1.35216 0.96347,1.43024 0.0704,0.12115 0.40657,0.10287 2.29255,-0.1247 l 2.21003,-0.26668 1.48772,0.36861 1.48773,0.36861 0.83907,-0.87965 0.83908,-0.87964 1.24155,1.06074 c 0.68286,0.58341 1.27951,1.06074 1.32589,1.06074 0.0464,0 0.0601,-0.16875 0.0304,-0.375 -0.0296,-0.20625 -0.18906,-1.58191 -0.35425,-3.05702 l -0.30036,-2.68202 1.21656,-1.29298 c 0.66911,-0.71114 1.22825,-1.29298 1.24254,-1.29298 0.0143,0 0.31197,0.0874 0.66152,0.19423 3.0578,0.93449 8.42202,1.95861 13.08553,2.49826 4.64378,0.53737 6.73053,0.57344 34.675,0.59941 l 8.725,0.008 0,15.88218 0,15.88217 -1.12353,0.34495 -1.12353,0.34495 -0.2511,0.67979 c -0.25068,0.67867 -0.2526,0.68072 -1.16037,1.23945 l -0.90927,0.55966 -0.3409,0.90843 c -0.23742,0.63268 -0.34369,1.08847 -0.35011,1.50156 l -0.009,0.59314 -0.50667,0.28625 -0.50667,0.28625 -0.31413,-1.32939 c -0.17277,-0.73116 -0.35792,-1.49525 -0.41145,-1.69797 -0.0908,-0.34376 -0.18516,-0.41615 -1.40204,-1.075 -0.71761,-0.38853 -1.40693,-0.70642 -1.53183,-0.70642 -0.1249,0 -1.03307,0.11239 -2.01815,0.24974 l -1.79105,0.24974 -0.98688,0.67526 c -0.54278,0.3714 -1.06264,0.77129 -1.15525,0.88864 -0.0926,0.11736 -0.54851,1.23377 -1.01312,2.4809 l -0.84475,2.26751 -1.5,0.91137 c -1.33305,0.80993 -4.32432,2.37684 -4.53745,2.37684 -0.0445,0 -0.38641,-0.43403 -0.75987,-0.96452 z"
       id="path4215"
       inkscape:connector-curvature="0" />
    <path
       style="opacity:1;fill:#55d400;fill-opacity:1;stroke:#000000;stroke-width:0.05;stroke-linejoin:round;stroke-miterlimit:4;stroke-dasharray:none;stroke-opacity:1"
       d="m 330.32134,422.84706 c -0.29872,-0.2114 -0.50372,-0.42644 -0.4766,-0.49995 0.0262,-0.0709 0.82456,-1.38505 1.7742,-2.92022 l 1.7266,-2.79122 3.25,-1.8164 c 1.7875,-0.99902 3.29891,-1.86742 3.35869,-1.92978 0.18891,-0.19708 1.15357,-2.6914 1.0706,-2.76825 -0.0436,-0.0404 -0.63468,-0.4163 -1.3135,-0.83533 l -1.2342,-0.76187 -2.73683,0.87089 -2.73683,0.87089 -0.22692,0.64279 c -0.24223,0.68613 -0.23896,0.6828 -1.38101,1.40808 l -0.75,0.47629 -0.35,0.99156 c -0.21946,0.62174 -0.35,1.17633 -0.35,1.48695 0,0.47329 -0.0178,0.50555 -0.4,0.72335 -0.22,0.12539 -0.43012,0.22871 -0.46692,0.22962 -0.0368,9e-4 -0.23385,-0.70711 -0.43787,-1.57336 -0.20402,-0.86625 -0.41555,-1.63111 -0.47007,-1.6997 -0.0545,-0.0686 -0.68998,-0.43466 -1.41213,-0.81351 l -1.31301,-0.68881 -1.9646,0.27077 -1.96461,0.27077 -0.68539,0.47104 c -1.6781,1.15326 -1.45373,0.83518 -2.42807,3.44219 -0.47848,1.28026 -0.93462,2.387 -1.01365,2.45941 -0.67359,0.61728 -5.85712,3.37307 -5.98661,3.18275 -0.0314,-0.0461 -0.36082,-0.51634 -0.73207,-1.04489 -0.37125,-0.52855 -0.675,-0.98712 -0.675,-1.01904 0,-0.13829 1.32956,-3.21704 1.43421,-3.3211 0.0637,-0.0633 1.02701,-0.53222 2.14073,-1.04202 l 2.02493,-0.92691 -0.28495,-0.50797 c -0.15672,-0.27939 -0.59133,-1.07048 -0.9658,-1.75798 -0.37447,-0.6875 -0.69825,-1.27078 -0.71951,-1.29619 -0.0213,-0.0254 -0.83537,-0.0974 -1.80913,-0.16008 l -1.77048,-0.1139 -2.61692,1.3733 c -1.46316,0.76783 -3.55024,1.76171 -4.73385,2.25427 l -2.11692,0.88098 -1.04437,1.0976 c -0.57739,0.60683 -1.07937,1.05656 -1.12267,1.00581 -0.0431,-0.0505 -0.36265,-0.72179 -0.71018,-1.49179 -0.34754,-0.77 -0.68211,-1.45452 -0.74349,-1.52115 -0.0614,-0.0666 -2.0916,-0.9956 -4.5116,-2.06436 l -4.4,-1.9432 -1.4,0.2351 c -0.77,0.12931 -1.81737,0.23702 -2.3275,0.23936 -0.87889,0.004 -0.96535,-0.0153 -1.65,-0.36858 l -0.7225,-0.37283 1,-0.0799 c 0.55,-0.0439 1.27508,-0.10407 1.6113,-0.13366 l 0.6113,-0.0538 1.11321,-1.18509 1.1132,-1.18508 -1.85574,-1.0534 -1.85574,-1.05339 -0.79579,0.15961 c -0.43769,0.0878 -0.8134,0.14177 -0.83493,0.11997 -0.0215,-0.0218 -0.11956,-0.79339 -0.21786,-1.71464 -0.0983,-0.92125 -0.20936,-1.675 -0.2468,-1.675 -0.0374,0 -0.48361,0.697 -0.99148,1.54888 -0.50787,0.85188 -0.95744,1.52784 -0.99903,1.50213 -0.0416,-0.0257 -0.10727,-0.55395 -0.14593,-1.17387 -0.0387,-0.61993 -0.0934,-1.22444 -0.12164,-1.34336 -0.0445,-0.1874 0.18517,-0.37155 1.72259,-1.38113 1.49372,-0.98089 1.75178,-1.18576 1.63364,-1.29694 -0.0772,-0.0726 -0.78402,-0.63537 -1.57079,-1.25055 l -1.43049,-1.11851 -0.37058,0.33168 c -0.20383,0.18242 -1.51761,1.35353 -2.91952,2.60247 -1.98102,1.76486 -2.78843,2.55952 -3.62392,3.56667 -0.59125,0.71273 -1.075,1.32298 -1.075,1.35611 0,0.0331 0.73932,0.89351 1.64293,1.91194 l 1.64294,1.8517 0.36723,1.1021 c 0.20198,0.60616 0.34681,1.17828 0.32184,1.27139 -0.025,0.0931 -0.42069,0.70496 -0.87938,1.35966 l -0.83398,1.19038 -0.70579,-0.78928 c -0.38819,-0.4341 -0.88579,-0.97596 -1.10579,-1.20412 l -0.4,-0.41485 -2.15,0.0804 c -4.42757,0.16564 -7.69428,0.33173 -7.79911,0.39651 -0.0596,0.0368 -0.2801,0.70547 -0.49009,1.48591 -0.20999,0.78043 -0.39957,1.43599 -0.4213,1.45679 -0.0217,0.0208 -0.8045,0.0905 -1.7395,0.1549 -0.935,0.0644 -1.79,0.15314 -1.9,0.19719 -0.11,0.0441 -1.9298,1.27837 -4.04399,2.74293 -2.1142,1.46456 -3.8917,2.66143 -3.95,2.65973 -0.0583,-0.002 -0.71827,-0.35046 -1.46658,-0.775 l -1.36056,-0.7719 -1.46444,-1.69793 -1.46443,-1.69793 0,-1.47979 0,-1.47978 -1.2,-1.84866 c -0.66,-1.01677 -1.2,-1.8677 -1.2,-1.89097 0,-0.0233 0.58384,-0.51954 1.29742,-1.10282 l 1.29741,-1.06052 -0.29741,-0.81494 c -0.16358,-0.44821 -0.29742,-0.86404 -0.29742,-0.92405 0,-0.06 0.51625,-0.27902 1.14722,-0.48668 l 1.14721,-0.37758 0.0278,-1.36097 0.0278,-1.36097 3.77083,-1.2582 c 2.07396,-0.69202 3.80967,-1.30321 3.85715,-1.35821 0.11841,-0.13719 1.5597,-3.94593 1.51106,-3.99312 -0.0215,-0.0208 -1.05154,-0.45011 -2.28904,-0.95397 -2.68524,-1.09333 -2.18034,-0.84497 -5.27938,-2.59688 -1.80299,-1.01925 -3.69838,-1.96984 -6.6,-3.31009 l -4.07062,-1.88022 -2.15,0.50048 -2.15,0.50048 -2.6,0.0418 -2.6,0.0418 -1.53829,-1.75876 c -1.47301,-1.68413 -1.55151,-1.75648 -1.85,-1.70512 -0.17144,0.0295 -1.22566,0.0847 -2.3427,0.12256 l -2.03099,0.0689 -0.8687,0.58729 c -0.47779,0.32301 -0.91967,0.56774 -0.98195,0.54383 -0.0623,-0.0239 -0.49808,-0.31695 -0.96842,-0.65122 -0.47034,-0.33427 -0.89202,-0.60743 -0.93706,-0.60702 -0.045,4e-4 -0.43064,0.19996 -0.85689,0.44344 l -0.775,0.4427 0,-10.59154 0,-10.59154 0.275,-0.0684 c 0.15125,-0.0376 0.72184,-0.1847 1.26798,-0.3269 l 0.99298,-0.25855 0.60326,-1.025 c 0.58452,-0.99316 0.61425,-1.025 0.95702,-1.02499 0.76352,3e-5 8.15261,0.60901 8.21831,0.67733 0.0384,0.04 0.73129,1.24266 1.53969,2.67266 0.8084,1.43 1.48034,2.61219 1.4932,2.62708 0.0129,0.0149 0.87783,-0.17635 1.92216,-0.425 1.04432,-0.24864 1.96064,-0.45208 2.03627,-0.45208 0.10148,0 3.29836,2.35128 4.24413,3.12152 0.055,0.0448 0.31704,0.24285 0.58232,0.44013 l 0.48232,0.35869 2.46768,0.049 2.46768,0.049 1.84031,0.70754 c 1.01218,0.38915 1.88968,0.70639 1.95,0.70499 0.0603,-10e-4 0.80719,-0.32837 1.65969,-0.72661 0.8525,-0.39823 1.64766,-0.7621 1.76702,-0.80861 0.18056,-0.0703 0.72308,0.24218 3.22877,1.85994 1.65646,1.06947 3.1083,1.94449 3.22632,1.94449 0.11802,0 1.0627,-0.1593 2.09928,-0.35401 1.03659,-0.19472 1.92372,-0.32991 1.9714,-0.30044 0.14947,0.0924 1.81867,2.47101 1.78716,2.54672 -0.0165,0.0396 -0.7162,0.71347 -1.55495,1.49752 -0.83875,0.78405 -1.52394,1.45584 -1.52264,1.49288 0.001,0.037 0.69719,0.35676 1.54643,0.71051 l 1.54407,0.64318 0.94122,1.41271 0.94122,1.41272 2.18735,-0.26102 2.18735,-0.26102 1.5,0.38055 1.5,0.38056 0.85,-0.89681 0.85,-0.89681 1.325,1.15086 c 1.1039,0.95881 1.32424,1.11256 1.32043,0.92138 -0.003,-0.12621 -0.15426,-1.53448 -0.33721,-3.12948 l -0.33263,-2.9 0.30429,-0.35 c 0.16736,-0.1925 0.70039,-0.77575 1.18451,-1.29611 l 0.88023,-0.94612 0.87769,0.22274 c 6.02384,1.52869 10.50206,2.28311 16.45805,2.77257 2.26584,0.18621 5.26186,0.20555 47.24464,0.30486 16.62375,0.0393 30.225,0.10518 30.225,0.14633 0,0.08 -4.89545,11.41833 -4.95921,11.48597 -0.0209,0.0221 -0.99727,0.29705 -2.1698,0.61093 -1.47977,0.39614 -2.53892,0.74874 -3.46264,1.15274 l -1.33077,0.58205 -2.10409,3.15702 c -1.23809,1.85767 -2.77062,4.00076 -3.72354,5.20702 l -1.61945,2.05 -0.31343,2.85 -0.31344,2.85 0.48808,2.95 0.48808,2.95 -0.2535,0.375 c -0.13942,0.20625 -0.26357,0.375 -0.27589,0.375 -0.0123,0 -0.57994,-0.49463 -1.2614,-1.09917 -0.68145,-0.60455 -1.2743,-1.09955 -1.31745,-1.1 -0.0431,-5e-4 -1.29183,0.56898 -2.77484,1.26541 l -2.69638,1.26624 -1.61882,2.15751 c -1.04247,1.38937 -1.77179,2.46948 -2.04848,3.03376 l -0.42966,0.87625 -3.65014,0 -3.65014,0 -1.48976,1.1 c -0.81937,0.605 -1.50632,1.09818 -1.52655,1.09596 -0.0202,-0.002 -0.27267,-0.17098 -0.56098,-0.375 z"
       id="path4203"
       inkscape:connector-curvature="0" />
    <path
       style="opacity:1;fill:#55d400;fill-opacity:1;stroke:#000000;stroke-width:0.05;stroke-linejoin:round;stroke-miterlimit:4;stroke-dasharray:none;stroke-opacity:1"
       d="m 218.87572,410.87831 c -0.51528,-0.35345 -0.95441,-0.66016 -0.97583,-0.68158 -0.0214,-0.0214 -0.17453,-1.09103 -0.34023,-2.3769 -0.1657,-1.28587 -0.33408,-2.36658 -0.37417,-2.40158 -0.0401,-0.035 -1.29143,-0.69432 -2.78076,-1.46514 l -2.70786,-1.40149 -1.99214,0.22092 c -1.94233,0.21539 -2.02197,0.23333 -3.18566,0.71782 -1.32744,0.55265 -1.2613,0.4758 -1.45532,1.69115 l -0.11261,0.70542 -2.31927,0.66367 c -1.43048,0.40934 -2.68333,0.70571 -3.26927,0.77336 -0.5225,0.0603 -1.04852,0.13065 -1.16894,0.15629 -0.16031,0.0341 -0.41212,0.40131 -0.94039,1.37124 -0.39679,0.72854 -0.73859,1.34493 -0.75953,1.36976 -0.0829,0.0983 -5.98149,-5.9694 -6.73786,-6.93098 l -0.19984,-0.25405 0.5124,-1.78006 c 0.50873,-1.76731 1.35582,-6.11968 1.21426,-6.23888 -0.0386,-0.0325 -0.7901,-0.29902 -1.6701,-0.59235 -1.66684,-0.55561 -2.278,-0.78827 -2.08806,-0.79491 0.76537,-0.0268 4.70641,-0.70475 6.11993,-1.05282 1.00753,-0.2481 1.87551,-0.4511 1.92884,-0.4511 0.0533,0 0.49851,0.27 0.98929,0.6 0.49078,0.33 0.91977,0.6 0.95331,0.6 0.0336,0 1.02411,-0.7446 2.20125,-1.65468 1.17715,-0.91007 2.96105,-2.21507 3.96422,-2.9 l 1.82395,-1.24532 1.00962,0 1.00962,0 0.73868,1.07137 c 0.40628,0.58925 0.73222,1.1405 0.72432,1.225 -0.008,0.0845 -0.21896,0.71267 -0.46903,1.39594 -0.25007,0.68327 -0.4437,1.25116 -0.4303,1.262 0.0134,0.0108 0.76686,0.2503 1.67436,0.53216 l 1.65,0.51247 0.7,-0.74619 0.7,-0.74619 1.9,1.35587 c 1.045,0.74573 1.95174,1.37734 2.01498,1.40358 0.0836,0.0347 3.63603,-2.33876 3.92242,-2.62066 0.0206,-0.0202 -0.13204,-0.51238 -0.33913,-1.09362 -0.20708,-0.58125 -0.35794,-1.07539 -0.33524,-1.09809 0.0227,-0.0227 0.8728,0.20583 1.88912,0.50784 l 1.84785,0.54912 1.75512,-0.0385 1.75513,-0.0385 1.84487,0.90824 1.84488,0.90824 0.43243,1.55 0.43243,1.55 2.04234,1.43493 c 1.29958,0.91307 2.01654,1.47677 1.9714,1.55 -0.039,0.0633 -0.69141,0.8951 -1.44977,1.84846 -0.75836,0.95336 -1.37883,1.77971 -1.37883,1.83633 0,0.0566 0.36,0.65254 0.8,1.32427 0.44,0.67173 0.8,1.26662 0.8,1.32198 0,0.26409 -0.84083,1.6215 -1.03703,1.67415 -0.11713,0.0314 -1.58034,0.0578 -3.25157,0.0585 l -3.0386,10e-4 -1.7114,1.03559 -1.7114,1.0356 -1.8,0.42695 c -0.99,0.23482 -1.8113,0.43635 -1.8251,0.44784 -0.0138,0.0115 -0.0771,0.38835 -0.14058,0.83746 -0.0635,0.44911 -0.14222,0.8154 -0.1749,0.81399 -0.0327,-0.001 -0.48102,-0.29177 -0.9963,-0.64522 z"
       id="path4205"
       inkscape:connector-curvature="0" />
    <path
       style="fill:none;fill-rule:evenodd;stroke:#000000;stroke-width:1px;stroke-linecap:butt;stroke-linejoin:miter;stroke-opacity:1"
       d="m 373.8,377.2622 -5.5,12.7 -4.5,1.2 -2.5,1.1 -4.2,6.3 -3.1,3.9 -0.6,5.5 1,6.1 -1,1.3 -2.7,-2.4 -5.1,2.4 -3.2,4.3 -0.9,1.9 -7.5,0 -3.1,2.3 -1.8,-1.3 3.9,-6.3 6.6,-3.7 0.9,-2.2 -2.1,-1.3 -5,1.6 -0.5,1.3 -1.8,1.1 -0.7,1.9 0.2,1 -1.9,1.1 -0.9,-3.8 -2.4,-1.3 -3.7,0.5 -2,1.4 -1.8,4.8 -3.3,2 -3.3,1.6 -1.9,-2.7 1.6,-3.8 3.9,-1.8 -1.6,-2.9 -3.2,-0.2 -5.1,2.7 -4.1,1.7 -2.6,2.7 -1.7,-3.7 -8.6,-3.8 -2.4,0.4 -2.3,0.1 -3.2,-1.7 4.8,-0.3 1.7,-1.8 -3,-1.7 -2,0.4 -0.3,-2.7 -2.1,3.5 -0.4,-4.8 3.2,-2.1 -2.3,-1.8 -5.5,4.9 -1.9,2.3 3.1,3.5 0.9,2.7 -2.3,3.3 -2.4,-2.7 -5.8,0.2 -3.7,0.2 -0.8,3 -3.9,0.3 -8.1,5.6 -3.2,-1.8 -3.1,-3.6 0,-3 -2.6,-4 2.7,-2.2 -0.7,-2 2.5,-0.8 0,-2.7 7.8,-2.6 1.3,-3.4 -4.4,-1.8 -5.3,-3 -8,-3.7 -4.5,1 -5.1,0.1 -3.1,-3.5 -4.4,0.2 -1.9,1.3 -2,-1.4 -3.3,1.9 0,-3.2 -3.2,-0.3 -2,1 -3.5,-1.2 0.6,-3.7 -5.3,-1.7 -3.9,7 2.3,1.8 -2.2,1.5 -2.2,-2.2 -2.1,1.2 -0.7,-5.1 -2.7,-2.9 -3.4,-1.3 -2,0.8 -4.2,-2.6 -1.3,-3 -3.8,-0.2 4.3,-3.1 0.8,-2.9 3.2,1.2 4.4,1.3 6,-2.9 4.5,1.7 20.3,-5 1.3,-2.2 9.1,0.7 3,5.3 3.8,-0.9 c 0.16667,0.1 0.33333,0.2 0.5,0.3 l 4.9,3.7 4.9,0.1 3.6,1.4 3.7,-1.7 6.2,4 4.3,-0.8 2.3,3.2 -3,2.8 2.6,1.1 1.8,2.7 4.2,-0.5 2.8,0.7 1.8,-1.9 2.1,1.8 -0.6,-5.3 2.7,-2.9 0.9,0"
       id="path4154"
       inkscape:connector-curvature="0" />
    <path
       style="fill:none;fill-rule:evenodd;stroke:#000000;stroke-width:1px;stroke-linecap:butt;stroke-linejoin:miter;stroke-opacity:1"
       d="m 189,403.1622 1.1,-3.8 0.7,-4 -5.5,-1.9 6.3,-0.9 4.1,-1 1.8,1.2 4,-3.1 3.8,-2.6 2.5,0 1.8,2.6 -0.9,2.5 2.6,0.8 1.4,-1.6 4.1,2.9 3.3,-2.3 -1,-2.8 4.8,1.4 3.4,-0.1 4,1.9 0.9,3.2 4.4,3.1 -3.1,3.9 1.7,2.6 -1.2,2.2 -6.7,0.1 -3.3,2 -3.4,0.8 -0.3,2.2 -2.9,-2 -0.6,-4.7 -5.2,-2.7 -3.7,0.4 -2.2,0.9 -0.3,1.9 -4.8,1.4 -2.3,0.3 -1.7,3.1"
       id="path4162"
       inkscape:connector-curvature="0" />
    <path
       style="fill:none;fill-rule:evenodd;stroke:#000000;stroke-width:1px;stroke-linecap:butt;stroke-linejoin:miter;stroke-opacity:1"
       d="m 245.3,394.2622 -2.4,0.4 -3.9,2 -1.2,2.2 4,1.5 1.2,-2.5 1.6,-1.8 2,-0.3 z"
       id="path4160"
       inkscape:connector-curvature="0" />
    <path
       style="opacity:1;fill:#55d400;fill-opacity:1;stroke:#000000;stroke-width:0.05;stroke-linejoin:round;stroke-miterlimit:4;stroke-dasharray:none;stroke-opacity:1"
       d="m 240.0282,399.17366 c -0.76142,-0.29317 -1.408,-0.55662 -1.43684,-0.58546 -0.0589,-0.0589 0.624,-1.35087 0.80482,-1.52276 0.064,-0.0609 0.90398,-0.5162 1.86655,-1.01186 1.61581,-0.83204 1.82938,-0.91451 2.78265,-1.07459 l 1.03252,-0.17338 0.24235,0.22768 c 0.13329,0.12522 0.24235,0.26207 0.24235,0.30412 0,0.042 -0.21375,0.10451 -0.475,0.13882 -0.26125,0.0343 -0.54981,0.0933 -0.64124,0.13113 -0.0914,0.0378 -0.55347,0.50451 -1.02675,1.03711 -0.69808,0.78558 -0.95365,1.16783 -1.35391,2.025 -0.27137,0.58115 -0.52934,1.05226 -0.57325,1.04692 -0.0439,-0.005 -0.70283,-0.24957 -1.46425,-0.54273 z"
       id="path4207"
       inkscape:connector-curvature="0" />
    <path
       style="fill:none;fill-rule:evenodd;stroke:#000000;stroke-width:1px;stroke-linecap:butt;stroke-linejoin:miter;stroke-opacity:1"
       d="m 316.3,424.1622 1.3,0.6 -0.7,1.7 2.2,0.5 -1.3,1.7 -2.1,-1 -0.4,-2.3 z"
       id="path4168"
       inkscape:connector-curvature="0" />
    <path
       style="fill:none;fill-rule:evenodd;stroke:#000000;stroke-width:1px;stroke-linecap:butt;stroke-linejoin:miter;stroke-opacity:1"
       d="m 314.7,428.4622 -1,1.8 1.5,1 1.5,-1.6 z"
       id="path4170"
       inkscape:connector-curvature="0" />
    <path
       style="fill:none;fill-rule:evenodd;stroke:#000000;stroke-width:1px;stroke-linecap:butt;stroke-linejoin:miter;stroke-opacity:1"
       d="m 311.1,430.5622 2.7,1.8 -2,1.2 -2,-1 z"
       id="path4172"
       inkscape:connector-curvature="0" />
    <path
       style="fill:none;fill-rule:evenodd;stroke:#000000;stroke-width:1px;stroke-linecap:butt;stroke-linejoin:miter;stroke-opacity:1"
       d="m 315.6,434.7622 -0.1,1.9 2.3,0.9 0.1,-2.5 z"
       id="path4174"
       inkscape:connector-curvature="0" />
    <path
       style="fill:none;fill-rule:evenodd;stroke:#000000;stroke-width:1px;stroke-linecap:butt;stroke-linejoin:miter;stroke-opacity:1"
       d="m 316.2,439.2622 -1.8,1.8 1.8,1.3 1.9,-1.6 z"
       id="path4176"
       inkscape:connector-curvature="0" />
    <path
       style="fill:none;fill-rule:evenodd;stroke:#000000;stroke-width:1px;stroke-linecap:butt;stroke-linejoin:miter;stroke-opacity:1"
       d="m 309.2,442.4622 1.7,1.4 -1.8,1.9 -1.8,-1.7 z"
       id="path4178"
       inkscape:connector-curvature="0" />
    <path
       style="opacity:1;fill:#55d400;fill-opacity:1;stroke:#000000;stroke-width:0.05;stroke-linejoin:round;stroke-miterlimit:4;stroke-dasharray:none;stroke-opacity:1"
       d="m 316.64554,436.57848 -0.6,-0.22678 0.0169,-0.47139 c 0.009,-0.25927 0.0349,-0.48942 0.057,-0.51145 0.022,-0.022 0.30692,-0.007 0.63308,0.0336 l 0.59301,0.0736 0.0296,0.45382 c 0.0163,0.2496 -0.006,0.54866 -0.05,0.66457 l -0.0796,0.21076 -0.6,-0.22677 z"
       id="path4188"
       inkscape:connector-curvature="0" />
    <path
       style="opacity:1;fill:#55d400;fill-opacity:1;stroke:#000000;stroke-width:0.05;stroke-linejoin:round;stroke-miterlimit:4;stroke-dasharray:none;stroke-opacity:1"
       d="m 315.66354,441.3583 -0.482,-0.36173 0.52362,-0.53021 0.52362,-0.53021 0.25838,0.18989 c 0.14211,0.10443 0.38493,0.29367 0.53961,0.42052 l 0.28122,0.23065 -0.54955,0.47444 c -0.30225,0.26095 -0.5638,0.47309 -0.58122,0.47142 -0.0174,-0.002 -0.24858,-0.16582 -0.51368,-0.36477 z"
       id="path4190"
       inkscape:connector-curvature="0" />
    <path
       style="opacity:1;fill:#55d400;fill-opacity:1;stroke:#000000;stroke-width:0.05;stroke-linejoin:round;stroke-miterlimit:4;stroke-dasharray:none;stroke-opacity:1"
       d="m 308.55669,444.5552 -0.48886,-0.46628 0.53886,-0.47822 c 0.29637,-0.26303 0.56135,-0.47954 0.58885,-0.48114 0.0275,-0.002 0.25014,0.16967 0.49476,0.38061 l 0.44475,0.38352 -0.48883,0.56621 c -0.26885,0.31141 -0.51399,0.56516 -0.54475,0.56389 -0.0308,-0.001 -0.27591,-0.21215 -0.54478,-0.46859 z"
       id="path4192"
       inkscape:connector-curvature="0" />
    <path
       style="opacity:1;fill:#55d400;fill-opacity:1;stroke:#000000;stroke-width:0.05;stroke-linejoin:round;stroke-miterlimit:4;stroke-dasharray:none;stroke-opacity:1"
       d="m 311.17054,432.71592 c -0.31625,-0.16116 -0.575,-0.34044 -0.575,-0.3984 0,-0.12976 0.5852,-0.99142 0.67333,-0.99142 0.13591,0 1.52244,0.95453 1.49815,1.03138 -0.0142,0.0447 -0.24977,0.20964 -0.5236,0.36641 l -0.49788,0.28504 -0.575,-0.29301 z"
       id="path4194"
       inkscape:connector-curvature="0" />
    <path
       style="opacity:1;fill:#55d400;fill-opacity:1;stroke:#000000;stroke-width:0.05;stroke-linejoin:round;stroke-miterlimit:4;stroke-dasharray:none;stroke-opacity:1"
       d="m 314.76875,430.3725 c -0.20526,-0.13948 -0.37321,-0.27682 -0.37321,-0.30519 0,-0.11852 0.4567,-0.83973 0.53219,-0.84044 0.0452,-4.2e-4 0.28056,0.11548 0.52301,0.25757 l 0.44082,0.25833 -0.36919,0.44167 c -0.20305,0.24291 -0.37171,0.44166 -0.37479,0.44166 -0.003,0 -0.17356,-0.11412 -0.37883,-0.2536 z"
       id="path4196"
       inkscape:connector-curvature="0" />
    <path
       style="opacity:1;fill:#55d400;fill-opacity:1;stroke:#000000;stroke-width:0.05;stroke-linejoin:round;stroke-miterlimit:4;stroke-dasharray:none;stroke-opacity:1"
       d="m 316.83886,427.65737 -0.70667,-0.35684 -0.15442,-0.90385 -0.15443,-0.90385 0.31719,-0.34611 c 0.2472,-0.26974 0.36548,-0.33077 0.53609,-0.27662 0.29052,0.0922 0.27898,0.19795 -0.12442,1.14045 l -0.34335,0.80217 0.96835,0.21867 c 0.53259,0.12028 0.98413,0.23283 1.00344,0.25013 0.049,0.0439 -0.49456,0.74593 -0.57197,0.73864 -0.0347,-0.003 -0.38113,-0.16652 -0.76981,-0.36279 z"
       id="path4198"
       inkscape:connector-curvature="0" />
    <path
       style="opacity:1;fill:#55d400;fill-opacity:1;stroke:#000000;stroke-width:0.05;stroke-linejoin:round;stroke-miterlimit:4;stroke-dasharray:none;stroke-opacity:1"
       d="m 320.44453,423.09006 -0.49553,-0.43605 0.28687,-0.41395 c 0.15778,-0.22768 0.30841,-0.41396 0.33474,-0.41396 0.0263,0 0.26576,0.1186 0.53208,0.26355 l 0.48422,0.26354 -0.13325,0.31146 c -0.26698,0.62408 -0.3915,0.86145 -0.45191,0.86145 -0.0339,0 -0.28468,-0.19622 -0.55722,-0.43604 z"
       id="path4200"
       inkscape:connector-curvature="0" />
    <path
       style="fill:none;fill-rule:evenodd;stroke:#000000;stroke-width:1px;stroke-linecap:butt;stroke-linejoin:miter;stroke-opacity:1"
       d="m 319.3,422.7622 1.1,-1.6 1.8,1 -1,2.2 z"
       id="path4166"
       inkscape:connector-curvature="0" />
    <path
       style="fill:none;fill-rule:evenodd;stroke:#000000;stroke-width:1px;stroke-linecap:butt;stroke-linejoin:miter;stroke-opacity:1"
       d="m 237.5,368.6622 0.1,0.1"
       id="path4156"
       inkscape:connector-curvature="0" />
  </g>
</svg>
