<?xml version="1.0" encoding="UTF-8" standalone="no"?>
<!-- Created with Inkscape (http://www.inkscape.org/) -->

<svg
   xmlns:dc="http://purl.org/dc/elements/1.1/"
   xmlns:cc="http://creativecommons.org/ns#"
   xmlns:rdf="http://www.w3.org/1999/02/22-rdf-syntax-ns#"
   xmlns:svg="http://www.w3.org/2000/svg"
   xmlns="http://www.w3.org/2000/svg"
   xmlns:sodipodi="http://sodipodi.sourceforge.net/DTD/sodipodi-0.dtd"
   xmlns:inkscape="http://www.inkscape.org/namespaces/inkscape"
   width="3000"
   height="3000"
   viewBox="0 0 2999.9999 3000"
   id="svg2"
   version="1.1"
   inkscape:version="0.91 r13725"
   style="shape-rendering:crispEdges"
   sodipodi:docname="pokemonGo.svg">
  <defs
     id="defs4" />
  <sodipodi:namedview
     id="base"
     pagecolor="#ffffff"
     bordercolor="#666666"
     borderopacity="1.0"
     inkscape:pageopacity="0.0"
     inkscape:pageshadow="2"
     inkscape:zoom="0.11313708"
     inkscape:cx="1556.0638"
     inkscape:cy="1716.8864"
     inkscape:document-units="px"
     inkscape:current-layer="layer1"
     showgrid="true"
     showguides="false"
     units="px"
     width="30in"
     inkscape:showpageshadow="false"
     inkscape:window-width="1280"
     inkscape:window-height="657"
     inkscape:window-x="-8"
     inkscape:window-y="-8"
     inkscape:window-maximized="1"
     inkscape:snap-bbox="false">
    <inkscape:grid
       type="xygrid"
       id="grid3344"
       enabled="true"
       visible="true"
       snapvisiblegridlinesonly="true"
       spacingx="99.999997"
       spacingy="100" />
  </sodipodi:namedview>
  <metadata
     id="metadata7">
    <rdf:RDF>
      <cc:Work
         rdf:about="">
        <dc:format>image/svg+xml</dc:format>
        <dc:type
           rdf:resource="http://purl.org/dc/dcmitype/StillImage" />
        <dc:title></dc:title>
      </cc:Work>
    </rdf:RDF>
  </metadata>
  <g
     inkscape:label="Ebene 1"
     inkscape:groupmode="layer"
     id="layer1"
     transform="translate(0,1947.64)">
    <circle
       style="fill:#f9f9f9;stroke:#000000;stroke-opacity:1;opacity:0.66"
       id="path3346"
       cx="1500"
       cy="-447.64001"
       r="1500" />
    <circle
       style="opacity:0.66000001;fill:#f9f9f9;stroke:#000000;stroke-opacity:1"
       id="path4298"
       cx="1497.6169"
       cy="-435.4866"
       r="1000" />
    <path
       style="fill:none;fill-rule:evenodd;stroke:#000000;stroke-width:1px;stroke-linecap:butt;stroke-linejoin:miter;stroke-opacity:1"
       d="m 2500,-447.64 500,0 C 2973.4242,195.72978 2667.4388,554.68869 2347.7299,785.64261 2034.1043,1012.202 1680.2503,1049.7454 1500,1052.36 974.17799,1034.2445 724.49952,856.81541 500,664.86 157.51327,375.17439 17.961316,-8.1734281 0,-447.64 c 13.095572,-442.16822 189.0799,-809.873 493.75,-1118.75 286.62912,-224.6584 603.5824,-388.6684 1006.25,-381.25 324.7594,4.5752 624.6071,104.645 899.3666,300.8868 229.8391,191.0635 420.0168,408.568 500.6334,699.1132 l -540.625,3.125 c -75.1465,-166.161 -219.218,-271.7711 -360.7311,-370.3715 -190.7713,-86.0606 -346.9977,-145.0453 -498.6439,-132.7535 -306.1816,-4.2962 -521.44523,123.2386 -710.63497,288.5806 C 599.77549,-961.43121 495.20525,-727.73424 500,-447.64 480.29585,-97.688029 702.27565,190.44995 787.86797,264.49203 956.62072,399.15933 1108.6886,543.23863 1500,552.36 1713.6904,527.16465 1920.5985,526.27268 2202.5806,256.36585 2388.6089,71.347826 2478.8638,-168.39787 2500,-447.64"
       id="path4300"
       inkscape:connector-curvature="0"
       sodipodi:nodetypes="ccscccccccccccccccc" />
    <path
       style="fill:none;fill-rule:evenodd;stroke:#000000;stroke-width:1px;stroke-linecap:butt;stroke-linejoin:miter;stroke-opacity:1"
       d="m 2476.5625,-248.42125 -1962.5,1.5625 c -25.30263,-129.46519 -9.35991,-204.2755 -12.5,-302.34375 L 2487.5,-547.64 c 12.3217,96.1837 9.3382,203.48366 -10.9375,299.21875 z"
       id="path4302"
       inkscape:connector-curvature="0"
       sodipodi:nodetypes="ccccc" />
    <path
       style="opacity:0.66000001;fill:#ffffff;stroke:#000000;stroke-width:6.25;stroke-opacity:1"
       d="M 1422.9785,2993.706 C 1191.0497,2973.1261 1021.5808,2929.7559 851.10354,2847.3525 652.44261,2751.3261 433.87942,2571.8645 302.41057,2396.8225 215.71879,2281.3981 129.51111,2118.315 86.368248,1988.125 41.904558,1853.9492 4.2152696,1626.7388 4.2361214,1492.9902 4.2520989,1390.5068 29.227956,1227.9982 64.401548,1101.5162 149.84269,794.27531 369.38849,469.76292 603.17639,305.1488 833.24442,143.15388 1039.3612,56.637379 1286.3547,18.388053 c 98.6816,-15.281795 312.2962,-15.4254964 411.6238,-0.276905 167.9497,25.614208 303.8767,68.431587 459.375,144.704382 135.6045,66.51477 236.0114,133.73245 334.375,223.84856 146.943,134.6221 256.4153,274.2316 329.8061,420.60016 26.9563,53.76081 70.1939,164.99825 70.1939,180.58781 0,8.54569 -30.3048,9.64794 -265.2585,9.64794 l -265.2585,0 -19.2067,-35.9375 C 2295.521,874.5875 2209.3246,783.28794 2086.6334,691.07219 1977.5415,609.07774 1820.7976,541.39727 1667.7751,510.21327 1596.0494,495.5965 1457.4354,492.94788 1363.6035,504.4012 1151.538,530.28639 942.16892,634.7505 782.41173,794.38531 644.65304,932.0385 554.0717,1101.4744 508.98118,1305.8477 c -12.69881,57.5575 -13.94744,79.0114 -13.28739,228.3026 0.516,116.7063 2.82471,166.0707 7.91404,169.2161 3.95204,2.4425 13.91944,29.6034 22.14979,60.3575 39.40435,147.2412 125.54042,307.9859 218.00017,406.8257 112.76844,120.5498 279.01781,231.1495 416.88751,277.34 236.3767,79.1935 497.1044,70.7931 724.7136,-23.3497 183.9828,-76.0982 363.837,-233.6171 471.1528,-412.6425 46.5193,-77.6042 99.7774,-211.216 113.4862,-284.7099 -20.5011,70.5169 21.939,-75.9812 34.2306,-223.4375 l 247.1854,0 247.1853,0 -3.6886,39.0625 c -11.9056,126.0803 -17.9544,171.9506 -31.9366,242.1875 -60.2385,302.5978 -189.3912,548.0886 -399.3705,759.1156 -248.106,249.3438 -528.0236,390.088 -869.6645,437.2723 -71.836,9.9213 -221.364,16.719 -270.9605,12.3181 z"
       id="path4320"
       inkscape:connector-curvature="0"
       sodipodi:nodetypes="sssssssssssssscsssssssssssssccccsssss"
       transform="translate(0,-1947.64)" />
    <path
       style="opacity:0.66000001;fill:#ffff00;stroke:#000000;stroke-width:4.41941738;stroke-opacity:1"
       d="M 1361.9845,2983.1602 C 1056.7756,2945.106 843.78323,2863.7511 624.11357,2701.3217 526.66413,2629.2651 399.69428,2509.9253 333.85168,2428.5027 227.41838,2296.8847 123.17809,2099.0837 78.810653,1944.5503 40.881591,1812.442 9.6926168,1610.1305 9.6616067,1496.0057 9.6304838,1381.4657 39.928756,1198.0745 80.849949,1065.1125 158.10717,814.0867 337.0017,536.03243 526.16615,372.96124 615.14688,296.25448 777.18756,193.9166 892.71091,141.46745 1029.7201,79.26344 1184.1234,34.932849 1315.1816,20.172251 c 68.213,-7.682577 209.1602,-10.2921293 286.3576,-5.30174 229.2524,14.819905 464.6685,91.504509 678.9666,221.167049 209.0834,126.50733 407.7118,334.67399 523.6927,548.84055 19.472,35.95629 73.4364,165.01919 79.6067,190.38982 2.8311,11.64079 2.493,11.84007 -24.747,14.58019 -15.1896,1.52797 -132.9562,2.18324 -261.7037,1.4562 l -234.0863,-1.32193 -17.8205,-32.23289 c -63.7647,-115.33491 -207.182,-250.44003 -354.1694,-333.64246 -97.0354,-54.92713 -231.2219,-102.6297 -346.4511,-123.16165 -52.6924,-9.38892 -250.2558,-7.99618 -311.0281,2.19265 -319.2156,53.51826 -599.7181,261.20878 -741.08439,548.71616 -46.3676,94.3013 -79.98416,196.1258 -94.83743,287.2622 -7.41366,45.4887 -8.93575,312.4442 -1.97799,346.9242 4.75949,23.5864 34.02642,113.3567 56.19192,172.3573 49.94224,132.9372 122.93882,249.9455 211.01564,338.2429 128.34841,128.6698 290.96525,227.3717 446.40775,270.9513 239.4432,67.1299 502.2056,45.7867 720.3651,-58.5126 189.1471,-90.4289 366.7552,-263.5193 458.4877,-446.8253 33.8195,-67.5806 62.9224,-143.1391 76.891,-199.6284 104.8856,-73.4702 -54.5812,168.6943 14.8387,-77.69 l 11.0796,-53.033 c 0.018,-37.0679 12.3477,-76.4007 13.8972,-92.8078 l 2.8174,-29.8311 242.4289,0 c 191.0344,0 242.4139,1.1712 242.3583,5.5243 -0.263,20.5993 -19.1908,178.9491 -26.809,224.2854 -63.5716,378.317 -244.7075,684.7274 -549.9438,930.2874 -212.4786,170.9373 -465.9047,275.6773 -749.0019,309.5595 -81.7007,9.7784 -242.5783,12.0151 -304.9398,4.2397 z"
       id="path4324"
       inkscape:connector-curvature="0"
       sodipodi:nodetypes="csssssssssssssscsssssssssssscccscssssscc"
       transform="translate(0,-1947.64)" />
    <path
       style="opacity:0.66000001;fill:#000000;stroke:#000000;stroke-width:3.125;stroke-opacity:1"
       d="m 515.67288,1697.1614 c -0.002,-0.4297 -2.12942,-12.7344 -4.72682,-27.3437 -6.88828,-38.7439 -10.05391,-116.6179 -8.0031,-196.875 l 1.7967,-70.3125 989.93994,-0.7862 c 940.6201,-0.7469 990.0519,-0.5134 992.1875,4.6875 1.2362,3.0105 2.2017,46.958 2.1457,97.6612 -0.097,87.3966 -0.5604,94.7047 -8.9269,140.625 -4.8538,26.6406 -9.4612,49.4922 -10.2388,50.7812 -1.2328,2.0436 -1954.16305,3.6051 -1954.17422,1.5625 z"
       id="path4326"
       inkscape:connector-curvature="0"
       transform="translate(0,-1947.64)" />
    <ellipse
       style="opacity:0.66000001;fill:#ffffff;stroke:#000000;stroke-width:1.39584982;stroke-opacity:1"
       id="path4328"
       cx="1500.0171"
       cy="-403.72922"
       rx="348.63022"
       ry="349.29504" />
  </g>
</svg>
